<?xml version="1.0" encoding="UTF-8" standalone="no"?>
<!-- Created with Inkscape (http://www.inkscape.org/) -->

<svg
   width="15.24mm"
   height="128.5mm"
   viewBox="0 0 15.24 128.5"
   version="1.1"
   id="svg5"
   sodipodi:docname="OneKnob.svg"
   inkscape:version="1.1.1 (3bf5ae0d25, 2021-09-20)"
   xmlns:inkscape="http://www.inkscape.org/namespaces/inkscape"
   xmlns:sodipodi="http://sodipodi.sourceforge.net/DTD/sodipodi-0.dtd"
   xmlns="http://www.w3.org/2000/svg"
   xmlns:svg="http://www.w3.org/2000/svg">
  <sodipodi:namedview
     id="namedview7"
     pagecolor="#ffffff"
     bordercolor="#666666"
     borderopacity="1.0"
     inkscape:pageshadow="2"
     inkscape:pageopacity="0.0"
     inkscape:pagecheckerboard="0"
     inkscape:document-units="mm"
     showgrid="false"
     inkscape:zoom="2.7868022"
     inkscape:cx="58.310561"
     inkscape:cy="439.75134"
     inkscape:window-width="1364"
     inkscape:window-height="748"
     inkscape:window-x="0"
     inkscape:window-y="18"
     inkscape:window-maximized="1"
     inkscape:current-layer="layer1"
     width="15.24mm" />
  <defs
     id="defs2" />
  <g
     inkscape:label="Layer 1"
     inkscape:groupmode="layer"
     id="layer1">
    <rect
       style="opacity:0.99;fill:#e6e6e6;fill-opacity:1;fill-rule:nonzero;stroke:none;stroke-width:0.456742;stroke-linecap:butt;stroke-linejoin:miter;stroke-miterlimit:4;stroke-dasharray:none;stroke-opacity:1"
       id="rect10146"
       width="15.24"
       height="128.5"
       x="0"
       y="0"
       inkscape:label="rect10146" />
    <g
       aria-label="VO"
       id="text17557"
       style="font-style:italic;font-weight:500;font-size:4.93889px;line-height:1.25;font-family:Z003;-inkscape-font-specification:'Z003, Medium Italic';letter-spacing:0px;word-spacing:0px;stroke-width:0.264583">
      <path
         d="m 6.3037904,118.22108 c 0.1135945,-0.0543 0.1481667,-0.0741 0.2222501,-0.13335 -0.2321279,-0.0296 -0.3457223,-0.0346 -0.5037668,-0.0346 -0.3852334,0 -0.627239,0.0741 -0.8692447,0.25682 -0.2716389,0.20743 -0.4296834,0.49883 -0.4296834,0.79516 0,0.13335 0.019756,0.22225 0.0889,0.38029 l 0.3753557,-0.2074 c -0.064206,-0.16298 -0.083961,-0.25682 -0.083961,-0.39511 0,-0.38029 0.2518834,-0.65193 0.6025446,-0.65193 0.054328,0 0.1284112,0.005 0.2123723,0.0148 -0.1284111,0.99766 -0.3210279,2.30153 -0.4000501,2.69664 0.1382889,-0.0247 0.1580445,-0.0296 0.3654779,-0.079 0.1778,-0.2025 0.2123722,-0.23213 0.5334001,-0.57292 0.7704668,-0.79022 1.165578,-1.22484 1.3730114,-1.50142 0.2765778,-0.38029 0.4148668,-0.70132 0.4148668,-0.97296 0,-0.0889 -0.00988,-0.13829 -0.04445,-0.23213 -0.098778,-0.0593 -0.1382889,-0.0741 -0.2568222,-0.084 -0.1333501,0.0593 -0.1876779,0.0988 -0.3012723,0.19756 0.1284111,0.10865 0.1728611,0.20249 0.1728611,0.37041 0,0.2667 -0.1629833,0.63218 -0.449439,1.0026 -0.2667,0.34572 -0.4593167,0.54821 -1.3532558,1.41746 z"
         id="path46419" />
      <path
         d="m 9.7017372,117.96426 c -0.4099278,0 -0.9334502,0.20743 -1.2742336,0.49882 -0.3951112,0.35067 -0.6173612,0.89394 -0.6173612,1.51624 0,0.63218 0.2913945,0.96803 0.8396113,0.96803 0.4543779,0 0.9383891,-0.21238 1.3137447,-0.56798 0.3605386,-0.34572 0.5531556,-0.85442 0.5531556,-1.45697 0,-0.6223 -0.286456,-0.95814 -0.8149168,-0.95814 z m -0.2815167,0.19261 c 0.4346223,0 0.6914445,0.34079 0.6914445,0.91864 0,0.38029 -0.09878,0.79516 -0.2617611,1.08161 -0.2123722,0.37536 -0.5482167,0.59267 -0.9136946,0.59267 -0.4543779,0 -0.7210779,-0.3556 -0.7210779,-0.96308 0,-0.91864 0.5235223,-1.62984 1.2050891,-1.62984 z"
         id="path46421" />
    </g>
    <g
       aria-label="One"
       id="text20937"
       style="font-style:italic;font-weight:500;font-size:4.93889px;line-height:1.25;font-family:Z003;-inkscape-font-specification:'Z003, Medium Italic';letter-spacing:0px;word-spacing:0px;stroke-width:0.264583">
      <path
         d="m 6.2124222,9.3000005 c -0.4099279,0 -0.9334502,0.2074334 -1.2742336,0.4988279 -0.3951112,0.3506616 -0.6173613,0.8939386 -0.6173613,1.5162396 0,0.632178 0.2913946,0.968022 0.8396113,0.968022 0.4543779,0 0.9383891,-0.212372 1.3137448,-0.567972 0.3605389,-0.345723 0.5531557,-0.854428 0.5531557,-1.456973 0,-0.6223 -0.2864557,-0.9581445 -0.8149169,-0.9581445 z M 5.9309055,9.4926172 c 0.4346223,0 0.6914446,0.3407834 0.6914446,0.9186338 0,0.380294 -0.098778,0.795161 -0.2617612,1.081617 -0.2123723,0.375355 -0.5482168,0.592666 -0.9136946,0.592666 -0.4543779,0 -0.721078,-0.3556 -0.721078,-0.963083 0,-0.918634 0.5235224,-1.6298338 1.2050892,-1.6298338 z"
         id="path46371" />
      <path
         d="m 7.5804872,12.125046 0.2913945,-1.16064 0.1234723,-0.07902 c 0.4593167,-0.286455 0.5136445,-0.316089 0.582789,-0.316089 0.029633,0 0.049389,0.02469 0.049389,0.06421 0,0.07902 -0.034572,0.22225 -0.182739,0.824794 -0.1086555,0.434623 -0.1284111,0.523523 -0.1284111,0.617362 0,0.06914 0.019756,0.128411 0.074083,0.22225 0.22225,-0.09878 0.5679723,-0.316089 0.9136946,-0.572912 l 0.034572,-0.138288 c -0.4790723,0.276577 -0.5136445,0.291394 -0.5630334,0.291394 -0.049389,0 -0.079022,-0.04939 -0.079022,-0.13335 0,-0.13335 0.019756,-0.217311 0.2370668,-1.002595 0.1234722,-0.439561 0.1234722,-0.439561 0.1234722,-0.469194 0,-0.05433 -0.034572,-0.08396 -0.093839,-0.08396 -0.1086556,0 -0.1234723,0.0099 -0.6568724,0.335844 -0.1975556,0.123472 -0.3259667,0.202495 -0.3852334,0.242006 0.049389,-0.172861 0.1185334,-0.474134 0.1185334,-0.513645 0,-0.03951 -0.024695,-0.06421 -0.064206,-0.06421 -0.054328,0 -0.3901723,0.172861 -0.7754057,0.40005 l -0.029633,0.128411 c 0.316089,-0.143228 0.3358446,-0.148167 0.3802946,-0.148167 0.034572,0 0.059267,0.02963 0.059267,0.06914 0,0.108655 -0.0889,0.503766 -0.2173111,0.963083 L 7.279215,12.00157 c -0.00988,0.03457 -0.034572,0.128411 -0.069144,0.2667 z"
         id="path46373" />
      <path
         d="m 10.919172,11.542257 c -0.395111,0.335844 -0.607483,0.459316 -0.795161,0.459316 -0.1284111,0 -0.2271889,-0.08396 -0.2617611,-0.212372 -0.019756,-0.07902 -0.024695,-0.13335 -0.024695,-0.276578 0.2271891,-0.143228 0.3654781,-0.242005 0.6568731,-0.459317 0.271639,-0.202494 0.370417,-0.365477 0.370417,-0.587727 0,-0.172862 -0.103717,-0.276578 -0.281518,-0.276578 -0.108656,0 -0.182738,0.02469 -0.301272,0.0889 -0.187678,0.108655 -0.3556,0.242005 -0.4543778,0.360539 -0.1876779,0.227189 -0.3556001,0.770467 -0.3556001,1.170517 0,0.291394 0.1531056,0.474133 0.404989,0.474133 0.2913939,0 0.6667499,-0.217311 1.0371659,-0.597606 z M 9.8523721,11.334823 c 0.083961,-0.5334 0.3062109,-0.938389 0.5235219,-0.938389 0.07902,0 0.13335,0.07902 0.13335,0.202495 0,0.246944 -0.143227,0.404989 -0.6568719,0.735894 z"
         id="path46375" />
    </g>
    <g
       aria-label="Knob"
       id="text20937-1"
       style="font-style:italic;font-weight:500;font-size:4.93889px;line-height:1.25;font-family:Z003;-inkscape-font-specification:'Z003, Medium Italic';letter-spacing:0px;word-spacing:0px;stroke-width:0.264583">
      <path
         d="m 6.647042,16.782034 c -0.1975556,0.276578 -0.3012722,0.3556 -0.4691945,0.3556 -0.1728612,0 -0.3457223,-0.143227 -0.4889501,-0.404989 -0.1432278,-0.2667 -0.2123723,-0.4445 -0.4642557,-1.140883 -0.1037167,-0.281517 -0.1580444,-0.439561 -0.2765778,-0.75565 0.7556502,-0.642056 0.9729613,-0.785284 1.1902725,-0.785284 0.0889,0 0.1531056,0.01482 0.2913945,0.07408 L 6.6124698,13.75943 C 6.4889976,13.71004 6.424792,13.69522 6.335892,13.69522 c -0.1234723,0 -0.2074334,0.02963 -0.3259668,0.113595 -0.074083,0.04939 -0.074083,0.04939 -0.7062612,0.558094 l -0.493889,0.414867 c -0.014817,0.01482 -0.074083,0.05927 -0.1580445,0.123472 L 4.9085528,13.87302 c 0.1432278,-0.03951 0.1827389,-0.0642 0.2568223,-0.153105 -0.2222501,-0.01482 -0.3309057,-0.01976 -0.4543779,-0.01976 -0.3901723,0 -0.7013224,0.05433 -0.9186336,0.158045 -0.3704167,0.182738 -0.5729112,0.474133 -0.5729112,0.829733 0,0.128411 0.019756,0.207433 0.083961,0.370417 l 0.404989,-0.172861 c -0.079022,-0.192617 -0.1086556,-0.31115 -0.1086556,-0.469195 0,-0.345722 0.2469445,-0.5334 0.7062613,-0.5334 0.049389,0 0.13335,0.0049 0.2370667,0.01482 l -0.049389,0.192616 c -0.2963334,1.234723 -0.3704167,1.481667 -0.5235223,1.817512 -0.1629834,0.31115 -0.3506612,0.439561 -0.6321779,0.424744 H 3.1503079 l -0.2173111,0.212373 h 0.6766279 c 0.3457223,0 0.3654779,0 0.4593168,-0.03951 0.098778,-0.04445 0.2074334,-0.103717 0.3210278,-0.172862 H 3.7923636 C 4.3949082,15.730051 4.4739305,15.60164 4.6319749,14.984278 l 0.034572,0.108656 c 0.029633,0.08396 0.029633,0.0889 0.0889,0.271639 l 0.0889,0.296333 c 0.2123723,0.691445 0.360539,1.032228 0.538339,1.234723 0.2173112,0.246944 0.5185835,0.375355 0.8840613,0.375355 0.1629834,0 0.2518834,-0.01482 0.4346223,-0.08396 z"
         id="path46378" />
      <path
         d="M 6.5680191,16.451129 6.8594136,15.29049 6.9828859,15.21147 c 0.4593167,-0.286455 0.5136445,-0.316089 0.582789,-0.316089 0.029633,0 0.049389,0.0247 0.049389,0.06421 0,0.07902 -0.034572,0.22225 -0.182739,0.824795 -0.1086555,0.434622 -0.1284111,0.523522 -0.1284111,0.617361 0,0.06914 0.019756,0.128411 0.074083,0.22225 0.22225,-0.09878 0.5679723,-0.316089 0.9136946,-0.572911 l 0.034572,-0.138289 c -0.4790723,0.276578 -0.5136445,0.291394 -0.5630334,0.291394 -0.049389,0 -0.079022,-0.04939 -0.079022,-0.13335 0,-0.13335 0.019756,-0.217311 0.2370668,-1.002594 0.1234722,-0.439562 0.1234722,-0.439562 0.1234722,-0.469195 0,-0.05433 -0.034572,-0.08396 -0.093839,-0.08396 -0.1086556,0 -0.1234723,0.0099 -0.6568724,0.335844 -0.1975556,0.123473 -0.3259667,0.202495 -0.3852334,0.242006 0.049389,-0.172861 0.1185334,-0.474133 0.1185334,-0.513645 0,-0.03951 -0.024694,-0.0642 -0.064206,-0.0642 -0.054328,0 -0.3901723,0.172861 -0.7754057,0.40005 l -0.029633,0.128411 c 0.316089,-0.143228 0.3358446,-0.148167 0.3802946,-0.148167 0.034572,0 0.059267,0.02963 0.059267,0.06915 0,0.108655 -0.0889,0.503767 -0.2173111,0.963083 l -0.1135945,0.40005 c -0.00988,0.03457 -0.034572,0.128412 -0.069144,0.266701 z"
         id="path46380" />
      <path
         d="m 9.8029873,14.515084 c -0.1975556,0 -0.5136445,0.143228 -0.805039,0.360539 -0.316089,0.237067 -0.538339,0.750711 -0.538339,1.2446 0,0.296334 0.1679222,0.48895 0.4296834,0.48895 0.1382889,0 0.2815167,-0.04939 0.5037668,-0.167922 0.2469445,-0.138289 0.4099278,-0.261761 0.4988278,-0.375356 0.1975557,-0.271639 0.3555997,-0.75565 0.3555997,-1.096433 0,-0.2667 -0.182739,-0.454378 -0.4444997,-0.454378 z M 9.546165,14.747212 c 0.1975556,0 0.3210279,0.187678 0.3210279,0.48895 0,0.212372 -0.069144,0.464255 -0.1876778,0.706261 -0.1432278,0.281517 -0.3210279,0.434622 -0.5087057,0.434622 -0.2024945,0 -0.3309056,-0.182739 -0.3309056,-0.464255 0,-0.572912 0.3605389,-1.165578 0.7062612,-1.165578 z"
         id="path46382" />
      <path
         d="m 10.484553,16.628929 0.158044,-0.13335 c 0.138289,0.05433 0.242006,0.07408 0.335845,0.07408 0.128411,0 0.158044,-0.01482 0.464255,-0.207433 0.22225,-0.123473 0.22225,-0.123473 0.251884,-0.143228 0.13335,-0.08396 0.227189,-0.187678 0.301272,-0.321028 0.158044,-0.286456 0.276578,-0.716139 0.276578,-1.007533 0,-0.227189 -0.113595,-0.375356 -0.291395,-0.375356 -0.167922,0 -0.301272,0.07408 -0.795161,0.424744 0.03951,-0.172861 0.03951,-0.172861 0.09384,-0.419805 0.09878,-0.48895 0.108655,-0.518584 0.207433,-0.740834 0.09384,-0.212372 0.187678,-0.276578 0.414867,-0.276578 h 0.202495 l 0.202494,-0.286455 c -0.09878,-0.0099 -0.162983,-0.01482 -0.217311,-0.01482 -0.182739,0 -0.271639,0.04939 -0.686506,0.395111 -0.335844,0.271639 -0.335844,0.271639 -0.508706,1.037167 -0.09384,0.409928 -0.182738,0.790223 -0.281516,1.224845 -0.0889,0.390172 -0.09878,0.434622 -0.1778,0.750711 z m 0.651933,-1.486606 c 0.281517,-0.207433 0.454378,-0.296334 0.567972,-0.296334 0.09878,0 0.162984,0.0889 0.162984,0.242006 0,0.197556 -0.05927,0.493889 -0.143228,0.706261 -0.13335,0.330906 -0.306211,0.493889 -0.523522,0.493889 -0.09878,0 -0.192617,-0.02469 -0.325967,-0.09384 z"
         id="path46384" />
    </g>
    <path
       inkscape:connector-curvature="0"
       id="path34099"
       d="m 7.6199999,33.876525 v 15.01634"
       style="fill:none;stroke:#000000;stroke-width:0.183832;stroke-linecap:round;stroke-linejoin:round;stroke-miterlimit:10;stroke-opacity:1" />
    <g
       aria-label="CV"
       id="text30775"
       style="font-size:4.23333px;line-height:1.25;-inkscape-font-specification:'sans-serif, Normal';letter-spacing:0px;word-spacing:0px;stroke-width:0.264583">
      <path
         d="m 7.3192431,55.127988 v 0.440283 q -0.2108397,-0.19637 -0.4506181,-0.293522 -0.2377114,-0.09715 -0.5064286,-0.09715 -0.5291663,0 -0.8102858,0.324527 -0.2811196,0.322461 -0.2811196,0.934309 0,0.609782 0.2811196,0.93431 0.2811195,0.32246 0.8102858,0.32246 0.2687172,0 0.5064286,-0.09715 0.2397784,-0.09715 0.4506181,-0.293522 v 0.436148 q -0.2191079,0.148828 -0.4650875,0.223242 -0.2439126,0.07441 -0.5167639,0.07441 -0.7007318,0 -1.1038077,-0.42788 -0.4030758,-0.429948 -0.4030758,-1.172021 0,-0.74414 0.4030758,-1.17202 0.4030759,-0.429948 1.1038077,-0.429948 0.2769854,0 0.520898,0.07441 0.2459796,0.07235 0.4609534,0.219108 z"
         id="path46394" />
      <path
         d="M 8.7599808,57.976391 7.5817592,54.890277 h 0.4361487 l 0.9777173,2.598289 0.9797843,-2.598289 h 0.4340815 l -1.1761545,3.086114 z"
         id="path46396" />
    </g>
    <g
       aria-label="Map"
       id="text30775-6"
       style="font-size:3.52778px;line-height:1.25;-inkscape-font-specification:'sans-serif, Normal';letter-spacing:0px;word-spacing:0px;stroke-width:0.264583">
      <path
         d="m 4.1671506,23.585753 h 0.5184872 l 0.6562912,1.75011 0.6597362,-1.75011 h 0.5184872 v 2.571765 H 6.1808103 v -2.258261 l -0.6631814,1.76389 H 5.1679515 l -0.6631813,-1.76389 v 2.258261 H 4.1671506 Z"
         id="path46387" />
      <path
         d="m 8.0738915,25.187723 q -0.3841284,0 -0.5322676,0.08785 -0.1481392,0.08785 -0.1481392,0.299724 0,0.16881 0.1102431,0.268717 0.1119657,0.09819 0.3031686,0.09819 0.26355,0 0.4220245,-0.186035 0.160197,-0.187758 0.160197,-0.497817 v -0.07063 z M 8.7060669,25.05681 v 1.100708 h -0.316949 v -0.292833 q -0.1085206,0.1757 -0.2704402,0.260105 -0.1619196,0.08268 -0.3961862,0.08268 -0.2962784,0 -0.4719784,-0.165364 -0.1739774,-0.167088 -0.1739774,-0.446141 0,-0.325561 0.2170411,-0.490926 0.2187637,-0.165365 0.6511235,-0.165365 h 0.4444176 v -0.03101 q 0,-0.218763 -0.1446941,-0.337619 -0.1429716,-0.120579 -0.4030764,-0.120579 -0.1653647,0 -0.3221167,0.03962 -0.1567519,0.03962 -0.301446,0.118856 v -0.292833 q 0.1739774,-0.06718 0.3376196,-0.09991 0.1636421,-0.03445 0.3186715,-0.03445 0.4185794,0 0.6252852,0.217041 0.2067059,0.217041 0.2067059,0.658014 z"
         id="path46389" />
      <path
         d="m 9.6655265,25.86813 v 1.023194 H 9.346855 v -2.66306 h 0.3186715 v 0.292833 q 0.099908,-0.172255 0.2514921,-0.254937 0.1533064,-0.08441 0.3651804,-0.08441 0.3514,0 0.570164,0.279053 0.220486,0.279053 0.220486,0.733806 0,0.454752 -0.220486,0.733805 -0.218764,0.279053 -0.570164,0.279053 -0.211874,0 -0.3651804,-0.08268 -0.1515843,-0.08441 -0.2514921,-0.25666 z m 1.0783155,-0.673516 q 0,-0.349678 -0.144694,-0.547771 -0.142972,-0.199816 -0.394464,-0.199816 -0.2514918,0 -0.3961859,0.199816 -0.1429716,0.198093 -0.1429716,0.547771 0,0.349677 0.1429716,0.549493 0.1446941,0.198093 0.3961859,0.198093 0.251492,0 0.394464,-0.198093 0.144694,-0.199816 0.144694,-0.549493 z"
         id="path46391" />
    </g>
    <g
       aria-label="Abs"
       id="text30775-6-4"
       style="font-size:3.52778px;line-height:1.25;-inkscape-font-specification:'sans-serif, Normal';letter-spacing:0px;word-spacing:0px;stroke-width:0.264583">
      <path
         d="M 5.6528491,90.929309 5.1808707,92.209163 H 6.12655 Z M 5.4564785,90.586522 h 0.3944637 l 0.9801303,2.571765 H 6.4693372 L 6.2350706,92.498551 H 5.0757952 L 4.8415286,93.158287 H 4.4746257 Z"
         id="path46399" />
      <path
         d="m 8.5777371,92.195382 q 0,-0.349677 -0.1446941,-0.54777 -0.1429716,-0.199816 -0.3944637,-0.199816 -0.2514922,0 -0.3961863,0.199816 -0.1429715,0.198093 -0.1429715,0.54777 0,0.349678 0.1429715,0.549493 0.1446941,0.198093 0.3961863,0.198093 0.2514921,0 0.3944637,-0.198093 0.1446941,-0.199815 0.1446941,-0.549493 z M 7.4994215,91.521866 q 0.099908,-0.172255 0.2514921,-0.254938 0.1533069,-0.0844 0.3651804,-0.0844 0.3513999,0 0.5701636,0.279052 0.2204863,0.279053 0.2204863,0.733806 0,0.454753 -0.2204863,0.733806 -0.2187637,0.279053 -0.5701636,0.279053 -0.2118735,0 -0.3651804,-0.08268 -0.1515843,-0.0844 -0.2514921,-0.25666 v 0.289388 H 7.1807499 v -2.680286 h 0.3186716 z"
         id="path46401" />
      <path
         d="M 10.662021,91.285876 V 91.5856 q -0.134359,-0.0689 -0.279053,-0.103353 -0.144694,-0.03445 -0.299723,-0.03445 -0.2359893,0 -0.3548452,0.07235 -0.1171333,0.07235 -0.1171333,0.217041 0,0.110243 0.084405,0.173978 0.084405,0.06201 0.3393415,0.118856 l 0.108521,0.02411 q 0.33762,0.07235 0.478869,0.204984 0.142971,0.130913 0.142971,0.366902 0,0.268718 -0.213596,0.42547 -0.211873,0.156752 -0.5839438,0.156752 -0.1550294,0 -0.3238392,-0.03101 -0.1670872,-0.02928 -0.3531225,-0.08957 v -0.327285 q 0.1757,0.0913 0.3462323,0.137804 0.1705323,0.04479 0.3376196,0.04479 0.2239316,0 0.3445096,-0.07579 0.120578,-0.07751 0.120578,-0.217041 0,-0.129191 -0.08785,-0.198093 -0.08613,-0.0689 -0.3806827,-0.132636 L 9.8610361,92.293568 Q 9.5664802,92.231556 9.4355665,92.104087 9.3046528,91.974896 9.3046528,91.750965 q 0,-0.272163 0.1929254,-0.420302 0.1929255,-0.148139 0.5477708,-0.148139 0.1757,0 0.330729,0.02584 0.15503,0.02584 0.285943,0.07751 z"
         id="path46403" />
    </g>
    <g
       aria-label="Pickup"
       id="text30775-6-4-8"
       style="font-size:3.52778px;line-height:1.25;-inkscape-font-specification:'sans-serif, Normal';letter-spacing:0px;word-spacing:0px;stroke-width:0.264583">
      <path
         d="m 2.5479549,104.30946 v 0.96635 h 0.4375275 q 0.2428793,0 0.3755156,-0.12574 0.1326363,-0.12575 0.1326363,-0.3583 0,-0.23082 -0.1326363,-0.35656 -0.1326363,-0.12575 -0.3755156,-0.12575 z m -0.3479548,-0.28594 h 0.7854823 q 0.4323597,0 0.652846,0.19637 0.2222088,0.19465 0.2222088,0.57188 0,0.38069 -0.2222088,0.57534 -0.2204863,0.19464 -0.652846,0.19464 H 2.5479549 v 1.03353 H 2.2000001 Z"
         id="path46406" />
      <path
         d="m 4.2360527,104.66603 h 0.316949 v 1.92925 h -0.316949 z m 0,-0.75103 h 0.316949 v 0.40135 h -0.316949 z"
         id="path46408" />
      <path
         d="m 6.6045576,104.7401 v 0.29628 q -0.1343589,-0.0741 -0.2704402,-0.11025 -0.1343588,-0.0379 -0.2721627,-0.0379 -0.3083363,0 -0.4788686,0.19637 -0.1705324,0.19465 -0.1705324,0.54777 0,0.35312 0.1705324,0.54949 0.1705323,0.19465 0.4788686,0.19465 0.1378039,0 0.2721627,-0.0362 0.1360813,-0.0379 0.2704402,-0.11197 v 0.29283 q -0.1326363,0.062 -0.2756079,0.093 -0.141249,0.031 -0.301446,0.031 -0.4358049,0 -0.6924647,-0.27389 -0.2566597,-0.27388 -0.2566597,-0.73897 0,-0.47198 0.2583823,-0.74242 0.2601049,-0.27044 0.7114127,-0.27044 0.1464166,0 0.2859431,0.031 0.1395264,0.0293 0.2704402,0.0896 z"
         id="path46410" />
      <path
         d="m 7.1437153,103.915 h 0.3186715 v 1.58302 l 0.9456794,-0.83199 h 0.404799 l -1.0231941,0.90261 1.0662578,1.02664 H 8.4425171 l -0.9801303,-0.94223 v 0.94223 H 7.1437153 Z"
         id="path46412" />
      <path
         d="m 9.0574667,105.83392 v -1.16789 h 0.316949 v 1.15583 q 0,0.27388 0.1067981,0.41169 0.106798,0.13608 0.320394,0.13608 0.2566602,0 0.4047992,-0.16364 0.149862,-0.16364 0.149862,-0.44614 v -1.09382 h 0.316949 v 1.92925 h -0.316949 v -0.29627 q -0.115411,0.1757 -0.268718,0.26182 -0.1515843,0.0844 -0.3531226,0.0844 -0.3324519,0 -0.5047068,-0.20671 -0.1722549,-0.2067 -0.1722549,-0.60461 z m 0.7975402,-1.2144 z"
         id="path46414" />
      <path
         d="m 11.632677,106.3059 v 1.02319 h -0.318671 v -2.66306 h 0.318671 v 0.29283 q 0.09991,-0.17225 0.251492,-0.25494 0.153307,-0.0844 0.365181,-0.0844 0.3514,0 0.570163,0.27905 0.220487,0.27906 0.220487,0.73381 0,0.45475 -0.220487,0.7338 -0.218763,0.27906 -0.570163,0.27906 -0.211874,0 -0.365181,-0.0827 -0.151584,-0.0844 -0.251492,-0.25666 z m 1.078316,-0.67352 q 0,-0.34968 -0.144694,-0.54777 -0.142972,-0.19982 -0.394464,-0.19982 -0.251492,0 -0.396186,0.19982 -0.142972,0.19809 -0.142972,0.54777 0,0.34968 0.142972,0.54949 0.144694,0.19809 0.396186,0.19809 0.251492,0 0.394464,-0.19809 0.144694,-0.19981 0.144694,-0.54949 z"
         id="path46416" />
    </g>
  </g>
  <g
     inkscape:groupmode="layer"
     id="layer3"
     inkscape:label="components"
     style="display:none">
    <circle
       style="display:inline;vector-effect:none;fill:#00ff00;fill-opacity:1;fill-rule:evenodd;stroke-width:0.264583;stroke-linecap:butt;stroke-linejoin:miter;stroke-miterlimit:4;stroke-dasharray:none;stroke-dashoffset:0;stroke-opacity:1"
       id="path31294-4"
       cx="7.6199999"
       cy="48.740803"
       r="1.6767393"
       inkscape:label="CV" />
    <circle
       style="display:inline;vector-effect:none;fill:#ff0000;fill-opacity:1;fill-rule:evenodd;stroke-width:0.264583;stroke-linecap:butt;stroke-linejoin:miter;stroke-miterlimit:4;stroke-dasharray:none;stroke-dashoffset:0;stroke-opacity:1"
       id="path31294-8"
       cx="7.6199999"
       cy="98.561707"
       r="1.6767393"
       inkscape:label="Mode" />
    <circle
       style="vector-effect:none;fill:#ff0000;fill-opacity:1;fill-rule:evenodd;stroke-width:0.264583;stroke-linecap:butt;stroke-linejoin:miter;stroke-miterlimit:4;stroke-dasharray:none;stroke-dashoffset:0;stroke-opacity:1"
       id="path31294"
       cx="7.6199999"
       cy="33.853176"
       r="1.6767393"
       inkscape:label="Knob" />
  </g>
</svg>
